<svg width="180" height="180" viewBox="0 0 180 180" fill="none" xmlns="http://www.w3.org/2000/svg">
<circle cx="90" cy="90" r="90" fill="#185040"/>
<circle cx="90" cy="90" r="85" fill="white"/>
<circle cx="90" cy="90" r="80" fill="#185040"/>
<line x1="39.9965" y1="115.199" x2="139.994" y2="114.5" stroke="white"/>
<path d="M39.9521 70.978C40.1025 71.3862 40.2852 71.9985 40.5 72.8149C40.7148 73.6206 40.9512 74.5552 41.209 75.6187C41.4668 76.6821 41.7354 77.8369 42.0146 79.083C42.3047 80.3291 42.5894 81.5967 42.8687 82.8857C43.1587 84.1748 43.438 85.4478 43.7065 86.7046C43.9858 87.9614 44.2437 89.127 44.48 90.2012C44.7163 91.2754 44.9258 92.2314 45.1084 93.0693C45.3018 93.8965 45.4521 94.5303 45.5596 94.9707C45.7959 94.3691 46.0698 93.6279 46.3813 92.7471C46.7036 91.8662 47.0474 90.9048 47.4126 89.8628C47.7886 88.8101 48.1753 87.6982 48.5728 86.5273C48.981 85.3457 49.3892 84.1587 49.7974 82.9663C50.2163 81.7632 50.6353 80.5762 51.0542 79.4053C51.4731 78.2344 51.876 77.1279 52.2627 76.0859C52.6494 75.0332 53.0146 74.0718 53.3584 73.2017C53.7129 72.3208 54.0298 71.5796 54.3091 70.978L55.6304 71.1392C55.437 71.8159 55.2437 72.6055 55.0503 73.5078C54.8569 74.3994 54.6689 75.3716 54.4863 76.4243C54.3145 77.4663 54.1479 78.5674 53.9868 79.7275C53.8257 80.877 53.686 82.0371 53.5679 83.208C53.4497 84.3789 53.353 85.5391 53.2778 86.6885C53.2134 87.8379 53.1812 88.9336 53.1812 89.9756C53.1812 92.0059 53.3262 93.5474 53.6162 94.6001C53.9062 95.6528 54.3574 96.1792 54.9697 96.1792C55.2383 96.1792 55.4961 96.0718 55.7432 95.8569C56.001 95.6421 56.2695 95.3198 56.5488 94.8901C56.8389 94.4604 57.145 93.9287 57.4673 93.2949C57.8003 92.6504 58.1763 91.9092 58.5952 91.0713L58.7563 90.7329L59.417 91.2324L59.2559 91.5708C58.7188 92.645 58.2354 93.585 57.8057 94.3906C57.3867 95.1855 56.9785 95.8516 56.5811 96.3887C56.1943 96.9258 55.8022 97.3286 55.4048 97.5972C55.0181 97.8657 54.5938 98 54.1318 98C53.4873 98 52.9502 97.8442 52.5205 97.5327C52.0908 97.2104 51.7417 96.7593 51.4731 96.1792C51.2153 95.5884 51.0273 94.874 50.9092 94.0361C50.8018 93.1982 50.748 92.2529 50.748 91.2002C50.748 90.0508 50.8071 88.8477 50.9253 87.5908C51.0435 86.3232 51.1831 85.0933 51.3442 83.9009C51.5161 82.7085 51.688 81.6074 51.8599 80.5977C52.0425 79.5771 52.1982 78.7339 52.3271 78.0679L45.0601 98.8218L43.7388 98.4995C43.7388 98.2739 43.6689 97.7959 43.5293 97.0654C43.3896 96.3242 43.207 95.4326 42.9814 94.3906C42.7559 93.3379 42.498 92.1831 42.208 90.9263C41.9287 89.6587 41.6387 88.3857 41.3379 87.1074C40.6396 84.0996 39.8447 80.7588 38.9531 77.085C38.9854 77.8584 39.0229 78.6372 39.0659 79.4214C39.0981 80.0981 39.125 80.8232 39.1465 81.5967C39.1787 82.3594 39.1948 83.0737 39.1948 83.7397C39.1948 85.6841 39.082 87.4082 38.8564 88.9121C38.6416 90.416 38.3462 91.7266 37.9702 92.8438C37.5942 93.9502 37.1538 94.8848 36.6489 95.6475C36.144 96.4102 35.6069 97.0225 35.0376 97.4844C34.4683 97.9463 33.8828 98.2793 33.2812 98.4834C32.6904 98.6875 32.1104 98.7896 31.541 98.7896C30.9717 98.7896 30.4399 98.6929 29.9458 98.4995C29.4409 98.3169 29.0059 98.0591 28.6406 97.7261C28.2646 97.3823 27.9692 96.9849 27.7544 96.5337C27.5288 96.0718 27.416 95.5723 27.416 95.0352C27.416 94.4014 27.5234 93.7944 27.7383 93.2144C27.9424 92.6343 28.2324 92.0918 28.6084 91.5869C28.9736 91.0713 29.4087 90.5933 29.9136 90.1528C30.4185 89.7124 30.9609 89.3042 31.541 88.9282L32.0244 89.4277C31.6162 89.7178 31.2402 90.0454 30.8965 90.4106C30.5527 90.7651 30.2573 91.1519 30.0103 91.5708C29.7632 91.979 29.5698 92.4087 29.4302 92.8599C29.2905 93.3003 29.2207 93.7461 29.2207 94.1973C29.2207 94.6162 29.2905 95.0083 29.4302 95.3735C29.5591 95.7388 29.7524 96.061 30.0103 96.3403C30.2573 96.6196 30.5581 96.8398 30.9126 97.001C31.2563 97.1621 31.6484 97.2427 32.0889 97.2427C32.54 97.2427 33.0073 97.1514 33.4907 96.9688C33.9741 96.7754 34.4414 96.4639 34.8926 96.0342C35.3545 95.5938 35.7896 95.019 36.1978 94.3101C36.6167 93.5903 36.9766 92.7095 37.2773 91.6675C37.5889 90.6147 37.8359 89.3848 38.0186 87.9775C38.2012 86.5703 38.2925 84.9482 38.2925 83.1113C38.2925 82.585 38.2764 81.9673 38.2441 81.2583C38.2227 80.5493 38.1851 79.8081 38.1313 79.0347C38.0884 78.2612 38.0347 77.4878 37.9702 76.7144C37.9058 75.9302 37.8359 75.2051 37.7607 74.5391C37.6963 73.8623 37.6211 73.2715 37.5352 72.7666C37.46 72.251 37.3848 71.875 37.3096 71.6387L39.9521 70.978ZM59.7715 85.2544C59.8145 85.147 59.9165 85.061 60.0776 84.9966C60.2388 84.9321 60.4106 84.8892 60.5933 84.8677C60.7759 84.8354 60.9478 84.8193 61.1089 84.8193C61.27 84.8086 61.3774 84.8032 61.4312 84.8032C61.5923 84.8032 61.6943 84.8462 61.7373 84.9321C61.791 85.0073 61.8179 85.1309 61.8179 85.3027C61.8179 85.3887 61.791 85.582 61.7373 85.8828C61.6836 86.1729 61.6138 86.5381 61.5278 86.9785C61.4526 87.4189 61.3667 87.9185 61.27 88.4771C61.1841 89.0356 61.0981 89.6104 61.0122 90.2012C60.937 90.792 60.8726 91.3936 60.8188 92.0059C60.7651 92.6074 60.7383 93.1768 60.7383 93.7139C60.7383 94.6484 60.894 95.3521 61.2056 95.8247C61.5171 96.2866 61.877 96.5176 62.2852 96.5176C62.9941 96.5176 63.6226 95.9966 64.1704 94.9546C64.7183 93.9126 65.2876 92.3872 65.8784 90.3784V85.6895C65.8784 85.5068 65.959 85.3618 66.1201 85.2544C66.292 85.1362 66.4854 85.0449 66.7002 84.9805C66.915 84.916 67.1245 84.873 67.3286 84.8516C67.5327 84.8193 67.6777 84.8032 67.7637 84.8032C68.0967 84.8032 68.2632 84.9697 68.2632 85.3027C68.2632 85.4209 68.2524 85.6196 68.231 85.8989C68.2202 86.1675 68.2041 86.4897 68.1826 86.8657C68.1611 87.231 68.1396 87.6392 68.1182 88.0903C68.1074 88.5308 68.1021 88.9766 68.1021 89.4277V95.9858C68.2954 95.7388 68.5371 95.4111 68.8271 95.0029C69.1279 94.5947 69.4341 94.1597 69.7456 93.6978C70.0679 93.2358 70.374 92.7739 70.6641 92.312C70.9648 91.8501 71.2065 91.4365 71.3892 91.0713L71.5664 90.7329L72.2271 91.2324L72.0498 91.5708C71.8242 92.022 71.5557 92.4893 71.2441 92.9727C70.9326 93.4561 70.5996 93.9448 70.2451 94.439C69.9014 94.9224 69.5415 95.4058 69.1655 95.8892C68.8003 96.3618 68.4458 96.813 68.1021 97.2427V100.804C68.1021 101.792 68.0107 102.63 67.8281 103.317C67.6562 104.016 67.4146 104.58 67.103 105.009C66.7915 105.45 66.4263 105.767 66.0073 105.96C65.5884 106.153 65.1318 106.25 64.6377 106.25C64.3262 106.25 64.0361 106.202 63.7676 106.105C63.5098 106.008 63.2842 105.863 63.0908 105.67C62.8975 105.487 62.7471 105.262 62.6396 104.993C62.5322 104.735 62.4785 104.44 62.4785 104.107C62.4785 103.624 62.5645 103.14 62.7363 102.657C62.9189 102.173 63.166 101.674 63.4775 101.158C63.7998 100.643 64.1704 100.111 64.5894 99.563C65.0083 99.0259 65.4595 98.4619 65.9429 97.8711V92.9888C65.6743 93.7192 65.3843 94.396 65.0728 95.019C64.7612 95.6313 64.4229 96.1577 64.0576 96.5981C63.6924 97.0386 63.3003 97.3823 62.8813 97.6294C62.4624 97.8765 62.0112 98 61.5278 98C61.1841 98 60.8296 97.9463 60.4644 97.8389C60.1099 97.7207 59.7769 97.5112 59.4653 97.2104C59.1646 96.9097 58.9175 96.5068 58.7241 96.002C58.5308 95.4863 58.4341 94.8311 58.4341 94.0361C58.4341 93.1338 58.4878 92.2153 58.5952 91.2808C58.7026 90.3462 58.8262 89.4761 58.9658 88.6704C59.1162 87.8647 59.2666 87.1611 59.417 86.5596C59.5674 85.9473 59.6855 85.5122 59.7715 85.2544ZM64.4604 105.267C64.6323 105.267 64.8042 105.229 64.9761 105.154C65.1587 105.09 65.3198 104.934 65.4595 104.687C65.5991 104.44 65.7119 104.075 65.7979 103.591C65.8945 103.108 65.9429 102.453 65.9429 101.625V99.1924C65.5776 99.6436 65.2393 100.079 64.9277 100.498C64.627 100.927 64.3638 101.341 64.1382 101.738C63.9126 102.146 63.7354 102.539 63.6064 102.915C63.4775 103.291 63.4131 103.656 63.4131 104.01C63.4131 104.343 63.5044 104.633 63.687 104.88C63.8696 105.138 64.1274 105.267 64.4604 105.267ZM89.6777 96.8398C90.0752 96.8398 90.478 96.7271 90.8862 96.5015C91.3052 96.2651 91.708 95.9482 92.0947 95.5508C92.4922 95.1426 92.8682 94.6646 93.2227 94.1167C93.5771 93.5688 93.8994 92.9834 94.1895 92.3604C94.4902 91.7266 94.7427 91.0713 94.9468 90.3945C95.1616 89.707 95.3228 89.0195 95.4302 88.332C95.4517 87.333 95.5 86.3447 95.5752 85.3672C95.6611 84.3789 95.7524 83.4819 95.8491 82.6763C95.9673 81.7417 96.0908 80.8447 96.2197 79.9854L98.7817 79.2925C98.6528 80.2378 98.5347 81.3066 98.4272 82.499C98.3413 83.5195 98.2607 84.728 98.1855 86.1245C98.1211 87.521 98.0889 89.0571 98.0889 90.7329C98.0889 92.0864 98.1748 93.2197 98.3467 94.1328C98.5293 95.0352 98.771 95.7656 99.0718 96.3242C99.3833 96.8721 99.7378 97.2642 100.135 97.5005C100.543 97.7261 100.973 97.8389 101.424 97.8389C102.004 97.8389 102.542 97.6616 103.036 97.3071C103.541 96.9526 103.992 96.4585 104.389 95.8247C104.797 95.1909 105.157 94.4443 105.469 93.585C105.78 92.7148 106.043 91.7695 106.258 90.749C106.473 89.7285 106.634 88.6543 106.742 87.5264C106.849 86.3984 106.903 85.2598 106.903 84.1104C106.903 82.6064 106.838 81.2798 106.709 80.1304C106.591 78.9702 106.425 77.9658 106.21 77.1172C106.006 76.2686 105.764 75.5596 105.485 74.9902C105.206 74.4209 104.91 73.9644 104.599 73.6206C104.298 73.2661 103.986 73.019 103.664 72.8794C103.342 72.729 103.036 72.6538 102.746 72.6538C102.434 72.6538 102.149 72.7129 101.892 72.8311C101.634 72.9385 101.397 73.0781 101.183 73.25C100.979 73.4219 100.791 73.6045 100.619 73.7979C100.458 73.9805 100.323 74.1523 100.216 74.3135L99.4746 73.8784C99.6035 73.6743 99.7969 73.4165 100.055 73.105C100.323 72.7827 100.64 72.4766 101.005 72.1865C101.381 71.8857 101.8 71.6333 102.262 71.4292C102.735 71.2144 103.24 71.1069 103.777 71.1069C104.561 71.1069 105.254 71.3701 105.855 71.8965C106.468 72.4229 106.978 73.1694 107.386 74.1362C107.805 75.103 108.122 76.2632 108.337 77.6167C108.552 78.9702 108.659 80.4741 108.659 82.1284C108.659 83.5034 108.589 84.873 108.45 86.2373C108.321 87.5908 108.122 88.8853 107.854 90.1206C107.585 91.356 107.247 92.5054 106.838 93.5688C106.43 94.6323 105.952 95.5562 105.404 96.3403C104.856 97.1138 104.239 97.7207 103.551 98.1611C102.864 98.6016 102.101 98.8218 101.263 98.8218C100.522 98.8218 99.8345 98.6714 99.2007 98.3706C98.5776 98.0698 98.0244 97.624 97.541 97.0332C97.0576 96.4316 96.6494 95.6904 96.3164 94.8096C95.9834 93.918 95.7417 92.8921 95.5913 91.7319C95.2798 92.5483 94.8984 93.3379 94.4473 94.1006C93.9961 94.8525 93.4912 95.5186 92.9326 96.0986C92.374 96.6787 91.7725 97.1406 91.1279 97.4844C90.4834 97.8281 89.812 98 89.1138 98C88.4692 98 87.8462 97.8979 87.2446 97.6938C86.6431 97.479 86.106 97.1191 85.6333 96.6143C85.1714 96.1094 84.8008 95.438 84.5215 94.6001C84.2422 93.7515 84.1025 92.6934 84.1025 91.4258C84.1025 90.4482 84.1938 89.46 84.3765 88.4609C84.5591 87.4512 84.79 86.4468 85.0693 85.4478C85.3486 84.4487 85.6494 83.4604 85.9717 82.4829C86.2939 81.5054 86.5947 80.5547 86.874 79.6309C87.1533 78.707 87.3843 77.8208 87.5669 76.9722C87.7495 76.1235 87.8408 75.3232 87.8408 74.5713C87.8408 73.5938 87.6421 72.8848 87.2446 72.4443C86.8579 71.9932 86.3262 71.7676 85.6494 71.7676C84.8975 71.7676 84.1777 71.9395 83.4902 72.2832C82.8135 72.6162 82.1797 73.0674 81.5889 73.6367C81.0088 74.2061 80.4771 74.8667 79.9937 75.6187C79.521 76.3599 79.1182 77.144 78.7852 77.9712C78.4521 78.7983 78.1943 79.6362 78.0117 80.4849C77.8291 81.3335 77.7378 82.1445 77.7378 82.918C77.7378 85.0557 78.377 86.1245 79.6553 86.1245C80.0635 86.1245 80.4717 86.001 80.8799 85.7539C81.2881 85.4961 81.6748 85.1416 82.04 84.6904C82.4053 84.2393 82.7383 83.7021 83.0391 83.0791C83.3398 82.4453 83.5977 81.7524 83.8125 81.0005L84.5054 81.3389C84.3979 81.6719 84.2583 82.0425 84.0864 82.4507C83.9253 82.8481 83.7319 83.2563 83.5063 83.6753C83.2808 84.0942 83.0229 84.5024 82.7329 84.8999C82.4429 85.2866 82.1206 85.6357 81.7661 85.9473C81.4116 86.248 81.0195 86.4897 80.5898 86.6724C80.1709 86.855 79.7144 86.9463 79.2202 86.9463C78.1782 86.9463 77.3457 86.5972 76.7227 85.8989C76.0996 85.1899 75.7881 84.1318 75.7881 82.7246C75.7881 81.79 75.9331 80.8501 76.2231 79.9048C76.5024 78.9595 76.8892 78.0518 77.3833 77.1816C77.8774 76.3115 78.4575 75.4951 79.1235 74.7324C79.7896 73.9697 80.5039 73.3091 81.2666 72.7505C82.0293 72.1919 82.8188 71.7515 83.6353 71.4292C84.4624 71.1069 85.2788 70.9458 86.0845 70.9458C86.7505 70.9458 87.3521 71.0317 87.8892 71.2036C88.4263 71.3755 88.8774 71.644 89.2427 72.0093C89.6187 72.3745 89.9033 72.8364 90.0967 73.395C90.3008 73.9536 90.4028 74.6196 90.4028 75.3931C90.4028 76.1558 90.3169 76.9829 90.145 77.8745C89.9839 78.7661 89.7744 79.7007 89.5166 80.6782C89.2695 81.645 88.9956 82.644 88.6948 83.6753C88.4048 84.6958 88.1309 85.7271 87.873 86.769C87.626 87.8003 87.4165 88.8262 87.2446 89.8467C87.0835 90.8564 87.0029 91.834 87.0029 92.7793C87.0029 93.5098 87.062 94.1328 87.1802 94.6484C87.2983 95.1641 87.4702 95.583 87.6958 95.9053C87.9214 96.2275 88.2007 96.4639 88.5337 96.6143C88.8667 96.7646 89.248 96.8398 89.6777 96.8398ZM123.757 91.2324L123.58 91.5708C123.215 92.3013 122.726 92.8867 122.114 93.3271C121.512 93.7568 120.857 94.0361 120.148 94.165C119.955 94.7129 119.702 95.2231 119.391 95.6958C119.09 96.1577 118.741 96.5605 118.343 96.9043C117.957 97.248 117.516 97.5166 117.022 97.71C116.539 97.9033 116.012 98 115.443 98C114.616 98 113.869 97.8281 113.203 97.4844C112.548 97.1299 111.989 96.6572 111.527 96.0664C111.065 95.4648 110.711 94.7666 110.464 93.9717C110.217 93.166 110.093 92.3066 110.093 91.3936C110.093 90.5986 110.185 89.8789 110.367 89.2344C110.55 88.5791 110.781 87.999 111.06 87.4941C111.339 86.9785 111.651 86.5327 111.995 86.1567C112.338 85.77 112.677 85.4531 113.01 85.2061C113.343 84.959 113.644 84.7764 113.912 84.6582C114.191 84.5293 114.401 84.4648 114.541 84.4648L114.75 85.0288C114.31 85.3511 113.917 85.8022 113.574 86.3823C113.273 86.8765 112.999 87.5317 112.752 88.3481C112.516 89.1646 112.397 90.1797 112.397 91.3936C112.397 92.1348 112.467 92.8545 112.607 93.5527C112.747 94.251 112.951 94.8687 113.219 95.4058C113.488 95.9429 113.815 96.3726 114.202 96.6948C114.6 97.0171 115.045 97.1782 115.54 97.1782C116.216 97.1782 116.775 96.9097 117.215 96.3726C117.667 95.8247 118 95.0781 118.214 94.1328C117.656 94.0146 117.124 93.7944 116.619 93.4722C116.114 93.1499 115.668 92.7524 115.282 92.2798C114.895 91.7964 114.583 91.2432 114.347 90.6201C114.122 89.9971 114.009 89.3203 114.009 88.5898C114.009 87.9883 114.084 87.4619 114.234 87.0107C114.396 86.5488 114.605 86.1675 114.863 85.8667C115.121 85.5552 115.416 85.3242 115.749 85.1738C116.093 85.0127 116.453 84.9321 116.829 84.9321C117.269 84.9321 117.72 85.061 118.182 85.3188C118.644 85.5659 119.063 85.9419 119.439 86.4468C119.815 86.9409 120.121 87.564 120.357 88.3159C120.594 89.0679 120.712 89.9434 120.712 90.9424C120.712 91.3184 120.69 91.689 120.647 92.0542C120.604 92.4194 120.54 92.7739 120.454 93.1177C120.97 92.9673 121.437 92.7256 121.856 92.3926C122.286 92.0596 122.64 91.6191 122.919 91.0713L123.097 90.7329L123.757 91.2324ZM115.072 88.4609C115.072 89.0947 115.158 89.6802 115.33 90.2173C115.513 90.7437 115.754 91.2109 116.055 91.6191C116.356 92.0166 116.705 92.3496 117.103 92.6182C117.5 92.8867 117.924 93.0747 118.375 93.1821C118.429 92.8813 118.461 92.5698 118.472 92.2476C118.494 91.9146 118.504 91.5762 118.504 91.2324C118.504 90.4697 118.445 89.7822 118.327 89.1699C118.209 88.5469 118.053 88.0205 117.86 87.5908C117.667 87.1504 117.441 86.812 117.183 86.5757C116.925 86.3394 116.662 86.2212 116.394 86.2212C116.028 86.2212 115.717 86.4199 115.459 86.8174C115.201 87.2041 115.072 87.752 115.072 88.4609ZM122.952 91.0713L123.113 90.7329C123.274 90.4106 123.419 90.0776 123.548 89.7339C123.688 89.3901 123.806 89.0679 123.902 88.7671C123.999 88.4556 124.074 88.1816 124.128 87.9453C124.182 87.6982 124.219 87.5103 124.241 87.3813C123.961 87.3491 123.693 87.2793 123.435 87.1719C123.177 87.0645 122.952 86.9194 122.758 86.7368C122.565 86.5542 122.415 86.3394 122.307 86.0923C122.189 85.8452 122.13 85.5659 122.13 85.2544C122.13 85.0073 122.173 84.7871 122.259 84.5938C122.345 84.4004 122.463 84.2393 122.613 84.1104C122.753 83.9814 122.914 83.8848 123.097 83.8203C123.269 83.7451 123.451 83.7075 123.645 83.7075C123.902 83.7075 124.128 83.7612 124.321 83.8687C124.515 83.9761 124.676 84.1211 124.805 84.3037C124.934 84.4756 125.03 84.6797 125.095 84.916C125.159 85.1416 125.191 85.3779 125.191 85.625C125.492 85.625 125.814 85.582 126.158 85.4961C126.513 85.4102 126.867 85.3188 127.222 85.2222C127.576 85.1147 127.925 85.0181 128.269 84.9321C128.613 84.8462 128.93 84.8032 129.22 84.8032C129.467 84.8032 129.666 84.8569 129.816 84.9644C129.966 85.061 130.042 85.2275 130.042 85.4639C130.042 85.6357 129.988 85.9204 129.88 86.3179C129.784 86.7153 129.66 87.1772 129.51 87.7036C129.359 88.23 129.193 88.8047 129.01 89.4277C128.838 90.04 128.677 90.6631 128.527 91.2969C128.376 91.9199 128.248 92.5269 128.14 93.1177C128.043 93.7085 127.995 94.2349 127.995 94.6968C127.995 95.2769 128.06 95.6689 128.188 95.873C128.317 96.0771 128.548 96.1792 128.881 96.1792C129.021 96.1792 129.193 96.1201 129.397 96.002C129.612 95.873 129.87 95.6313 130.17 95.2769C130.471 94.9116 130.826 94.396 131.234 93.73C131.653 93.0532 132.136 92.167 132.684 91.0713L132.845 90.7329L133.506 91.2324L133.345 91.5708C132.7 92.8599 132.125 93.918 131.621 94.7451C131.116 95.5723 130.648 96.2275 130.219 96.7109C129.8 97.1943 129.402 97.5327 129.026 97.7261C128.65 97.9087 128.274 98 127.898 98C127.265 98 126.749 97.7583 126.352 97.2749C125.954 96.7915 125.755 96.0449 125.755 95.0352C125.755 94.4873 125.831 93.918 125.981 93.3271C126.131 92.7363 126.319 92.1509 126.545 91.5708C126.771 90.98 127.023 90.3999 127.302 89.8306C127.582 89.2612 127.845 88.7241 128.092 88.2192C128.35 87.7036 128.581 87.2256 128.785 86.7852C128.989 86.3447 129.134 85.958 129.22 85.625L129.123 85.5283C128.951 85.5283 128.72 85.6196 128.43 85.8022C128.14 85.9849 127.812 86.1943 127.447 86.4307C127.093 86.6562 126.711 86.8711 126.303 87.0752C125.895 87.2793 125.481 87.4028 125.062 87.4458C125.041 87.5962 124.993 87.8164 124.917 88.1064C124.853 88.3965 124.762 88.7188 124.644 89.0732C124.525 89.4277 124.391 89.793 124.241 90.1689C124.09 90.5449 123.935 90.8994 123.773 91.2324L123.612 91.5708L122.952 91.0713ZM123.741 84.6099C123.645 84.6099 123.564 84.6421 123.5 84.7065C123.435 84.771 123.403 84.8462 123.403 84.9321C123.403 85.061 123.435 85.1738 123.5 85.2705C123.564 85.3564 123.645 85.4316 123.741 85.4961C123.838 85.5498 123.935 85.5928 124.031 85.625C124.139 85.6465 124.23 85.6572 124.305 85.6572C124.305 85.3564 124.257 85.1094 124.16 84.916C124.063 84.7119 123.924 84.6099 123.741 84.6099ZM136.116 98C135.461 98 134.892 97.8604 134.408 97.5811C133.936 97.3018 133.543 96.9258 133.232 96.4531C132.92 95.9697 132.689 95.4165 132.539 94.7935C132.389 94.1704 132.313 93.5098 132.313 92.8115C132.313 92.1992 132.373 91.5762 132.491 90.9424C132.609 90.3086 132.775 89.6963 132.99 89.1055C133.216 88.5039 133.495 87.9453 133.828 87.4297C134.161 86.9033 134.542 86.4468 134.972 86.0601C135.402 85.6733 135.88 85.3672 136.406 85.1416C136.943 84.916 137.518 84.8032 138.13 84.8032C138.829 84.8032 139.419 84.959 139.903 85.2705C140.397 85.582 140.794 85.9634 141.095 86.4146C141.106 84.3843 141.208 82.5903 141.401 81.0327C141.595 79.4751 141.863 78.1699 142.207 77.1172C142.562 76.0645 142.98 75.2695 143.464 74.7324C143.947 74.1846 144.479 73.9106 145.059 73.9106C145.263 73.9106 145.446 73.9375 145.607 73.9912C145.779 74.0342 145.918 74.1201 146.026 74.249C146.144 74.3779 146.23 74.5552 146.284 74.7808C146.348 74.9956 146.38 75.2749 146.38 75.6187C146.38 76.3276 146.311 77.144 146.171 78.0679C146.031 78.981 145.833 79.98 145.575 81.0649C145.317 82.1392 145 83.2886 144.624 84.5132C144.259 85.7271 143.851 86.9893 143.399 88.2998C143.41 89.4492 143.426 90.4429 143.448 91.2808C143.469 92.1187 143.496 92.8276 143.528 93.4077C143.571 93.9878 143.62 94.4604 143.673 94.8257C143.738 95.1909 143.808 95.4756 143.883 95.6797C143.969 95.873 144.065 96.0073 144.173 96.0825C144.291 96.147 144.42 96.1792 144.56 96.1792C144.807 96.1792 145.054 96.0718 145.301 95.8569C145.559 95.6313 145.833 95.3037 146.123 94.874C146.413 94.4336 146.724 93.8965 147.057 93.2627C147.401 92.6289 147.777 91.8984 148.185 91.0713L148.362 90.7329L149.023 91.2324L148.846 91.5708C148.223 92.8276 147.675 93.8696 147.202 94.6968C146.729 95.5132 146.294 96.1685 145.897 96.6626C145.51 97.1567 145.14 97.5059 144.785 97.71C144.431 97.9033 144.06 98 143.673 98C143.297 98 142.97 97.9087 142.69 97.7261C142.422 97.5327 142.191 97.2373 141.998 96.8398C141.804 96.4316 141.648 95.916 141.53 95.293C141.412 94.6592 141.321 93.9019 141.256 93.021C140.88 93.7729 140.494 94.4551 140.096 95.0674C139.699 95.6797 139.285 96.2061 138.855 96.6465C138.437 97.0762 137.996 97.4092 137.534 97.6455C137.072 97.8818 136.6 98 136.116 98ZM138.453 85.625C137.862 85.625 137.346 85.8076 136.906 86.1729C136.465 86.5273 136.1 86.9946 135.81 87.5747C135.52 88.144 135.305 88.7886 135.166 89.5083C135.026 90.228 134.956 90.9478 134.956 91.6675C134.956 92.2583 134.999 92.8276 135.085 93.3755C135.182 93.9126 135.321 94.3906 135.504 94.8096C135.697 95.2285 135.928 95.5615 136.197 95.8086C136.465 96.0557 136.777 96.1792 137.131 96.1792C137.475 96.1792 137.808 96.0933 138.13 95.9214C138.463 95.7495 138.791 95.4756 139.113 95.0996C139.436 94.7129 139.763 94.2188 140.096 93.6172C140.429 93.0049 140.784 92.2637 141.16 91.3936C141.138 90.8779 141.122 90.3301 141.111 89.75C141.101 89.1592 141.095 88.5308 141.095 87.8647C140.859 87.1665 140.499 86.6187 140.016 86.2212C139.543 85.8237 139.022 85.625 138.453 85.625ZM145.22 76.2148C145.22 75.7207 145.161 75.377 145.043 75.1836C144.936 74.9902 144.807 74.8936 144.656 74.8936C144.398 74.8936 144.189 75.146 144.028 75.6509C143.867 76.145 143.738 76.8164 143.641 77.665C143.555 78.5137 143.491 79.4966 143.448 80.6138C143.416 81.731 143.399 82.9072 143.399 84.1426V85.915C143.732 84.8301 144.017 83.8525 144.253 82.9824C144.49 82.1123 144.678 81.3013 144.817 80.5493C144.957 79.7974 145.059 79.0723 145.124 78.374C145.188 77.6758 145.22 76.9561 145.22 76.2148Z" fill="white"/>
</svg>
